<?xml version="1.0" encoding="utf-8"?>
<!-- Generator: Adobe Illustrator 27.5.0, SVG Export Plug-In . SVG Version: 6.00 Build 0)  -->
<svg version="1.1" id="Capa_1" xmlns="http://www.w3.org/2000/svg" xmlns:xlink="http://www.w3.org/1999/xlink" x="0px" y="0px"
	 viewBox="0 0 2349 1917" style="enable-background:new 0 0 2349 1917;" xml:space="preserve">
<style type="text/css">
	.st0{fill:#FFFFFF;stroke:#000000;stroke-width:4.2319;stroke-miterlimit:10;}
	.st1{fill:#FDC623;}
	.st2{fill:none;stroke:#000000;stroke-width:4.2319;stroke-linecap:round;stroke-miterlimit:10;}
	.st3{fill:none;stroke:#000000;stroke-width:4.2319;stroke-miterlimit:10;}
	.st4{fill:#DADADA;}
	.st5{fill:#FFFFFF;stroke:#000000;stroke-width:2.8213;stroke-miterlimit:10;}
	.st6{fill:#FFFFFF;stroke:#000000;stroke-width:2.8213;stroke-linecap:round;stroke-miterlimit:10;}
	.st7{fill:#FFFFFF;}
	.st8{fill:none;stroke:#000000;stroke-width:2.8213;stroke-linecap:round;stroke-miterlimit:10;}
	.st9{fill:none;stroke:#000000;stroke-width:2.8213;stroke-linecap:round;stroke-linejoin:round;stroke-miterlimit:10;}
</style>
<g>
	<g>
		<path class="st0" d="M1775.35,1565.47c122.8,0-89.23-256.79-218.56-197.71c2.47-65.63-50.9-93.15-97.99-49.45
			c-85.46-241.19-508.8-310.74-483.81,12.26c-12.64-8.55-114.53-41.41-97.61,72.48c-112.1,20.53-250.24,162.42-133.58,162.42
			C860.46,1565.47,1652.54,1565.47,1775.35,1565.47z"/>
		<path class="st1" d="M1781.85,1552.61c-48.49-95.06-121.43-185.17-230.03-137.17c-3.33-66.62-45.34-101.91-104.57-67.69
			c-28.07-116.16-132.59-192.93-248.72-216.18c-137.4-27.52-236.61,93.16-195.04,216.02c-53.6-24.19-111.94,17.84-79.82,73.37
			c-13.51-1.13-29.08,1.21-39.1-2.31c-31.07,15.35-69.34,17.8-97.04,45.01c-23.61,23.2-27.34,76.16-41.32,81.35"/>
		<path class="st2" d="M1314.93,1433.46c-4.36-14-20.54-23.3-36.07-15.82c-12.78-47.05-100.24-62.01-96.56,0.16
			c-19.56-14.89-37.41,1.26-39.3,21.8"/>
	</g>
	<path class="st1" d="M1064.13,642.9c0,259.93,210.71,470.63,470.62,470.63c259.92,0,470.63-210.71,470.63-470.63
		c0-259.91-210.71-470.62-470.63-470.62C1274.83,172.28,1064.13,382.99,1064.13,642.9z"/>
	<path class="st0" d="M416.79,1599.66c19.82-64.23,93.78-166.06,175.09-90.36c-13.12-66.1,71.72-132.7,97.72-64.86
		c-1.15-16.21,5.09-32.21,6.96-48.23c23.02-6.03,42.32,4.69,52.17,22.74c0.29-61.69,38.62-124.68,110.11-90.01
		c52.63,25.52,58.14,95.55,73.42,144.02c31.5-39.09,71.01-15.77,72.39,30.44c30.77-64.46,104.19-126.21,185.66-77.91
		c31.87,18.89,47.35,42.96,55.05,69.66c29.27-18,64.2-19.76,100.62,14.15c-13.14-66.1,71.72-132.7,97.72-64.86
		c-1.16-16.21,5.08-32.21,6.94-48.23c23.02-6.03,42.33,4.69,52.18,22.74c0.28-61.69,38.61-124.68,110.11-90.01
		c52.62,25.52,58.14,95.55,73.42,144.02c31.49-39.09,70.99-15.77,72.39,30.44c30.76-64.46,104.18-126.21,185.65-77.91
		c84.02,49.8,54.28,135.54,67.58,210.49c39.82-42.48,106.89-17.69,65.16,30.79H327.63C337.88,1626.2,352.19,1525.81,416.79,1599.66z
		"/>
	<path class="st3" d="M327.63,1666.77c-28.08,0-38.18-21.51-69.66-26.28c-17.04-2.58-35.4,27.4-54.7,26.28
		c-24.06-1.38-33.88,2.19-55.22-12.04"/>
	<path class="st3" d="M2077.12,1666.77c47.51,0,104.37,30.67,159.11,0"/>
	<path class="st3" d="M1654.16,1539.83c-9.77-26.22-49.01-37.95-53.51-1.43c-30.23-56.51-114.94,7.37-73.41,62.7"/>
	<path class="st3" d="M901.38,1574.84c4.77-13.53,5.72-21.73-9.96-29.98c-4.23,3.01-11.11,4.67-15.42,7.66
		c-0.48-41.67-61.87-56-58.45-8.65c-29.19-25.27-93.61-1.81-56.22,30.97"/>
	<path class="st3" d="M1255.89,1605.48c-2-19.46-12.3-21.95-27.35-10.29c-17.61-33.06-48.29-27.15-68.94-2.85"/>
	<path class="st3" d="M1947.4,1592.34c-2.02-21.98-21.19-27.01-38.28-13.8c-19.84-38.31-50.92-13.53-66.75,9.43"/>
</g>
<path class="st4" d="M1351.13,1756.59c0,21.2,80.75,38.38,180.37,38.38c99.61,0,180.36-17.18,180.36-38.38
	s-80.75-38.38-180.36-38.38C1431.89,1718.21,1351.13,1735.39,1351.13,1756.59z"/>
<path class="st4" d="M913.11,1709.75c0,12.28,41.29,22.24,92.24,22.24c50.94,0,92.23-9.95,92.23-22.24
	c0-12.28-41.29-22.24-92.23-22.24C954.4,1687.51,913.11,1697.47,913.11,1709.75z"/>
<g>
	<g>
		<path class="st5" d="M1314.1,714.39l-30.94,76.97c0,0,47.11,59.86,121.32,0c57.21-46.16,98.94-204.65,98.94-204.65l-18.74-6.47
			C1484.68,580.24,1374.5,758.12,1314.1,714.39z"/>
		<path class="st6" d="M1502.63,589.58c0,0,31.21-36.75,32.08-45.85c0.85-9.12-11.28-21.42-16.56-15.71
			c-5.29,5.72-28.21,30.35-30.64,34.22c-3.64,5.76-4.67,19.02-7.16,24.75"/>
	</g>
	<path d="M1487.47,1283.46c-12.93,12.24-50.07,33.65-59.98,27.1c-15.36-10.14,60.25-171.57,104.73-115.68
		C1541.23,1206.18,1526.16,1246.81,1487.47,1283.46z"/>
	<path class="st5" d="M1526.96,1192.48c38.05,59.03,59.7,470.32,59.7,470.32l-43.82,16.15c0,0-58.62-245.85-74.69-297.56
		c-20.9-67.2-24.61-139.82-24.61-139.82"/>
	<path d="M1553.12,1742.64c0,0,111.61-3.87,134.7-9.89c14.23-3.72,3.16-18.24-15.78-18.37c-40.02-0.23-85.39-51.57-85.39-51.57
		l-43.82,16.15L1553.12,1742.64z"/>
	<path class="st5" d="M1253.6,1242.33c-53.85,156.44-452.99,9.23-452.99,9.23l3.52-35.39c0,0,233.94-0.85,283.66,0
		c77.83,1.33,112.17,22.36,112.17,22.36"/>
	<path d="M764.16,1200.66c0,0-53.4,98.08-59.95,121.03c-4.03,14.16,14.1,12,23.84-4.26c20.54-34.34,76.53-66.4,76.53-66.4
		l7.08-34.86L764.16,1200.66z"/>
	<path class="st5" d="M1119.55,1005.14c5.72,134.19-2.5,210.65-2.5,210.65s3.92,57.41,113.17,81.51
		c33.54-74.94,113.04-197.96,107.55-291.09L1119.55,1005.14z"/>
	<polygon points="1270.53,1216.54 1245.73,1265.06 1179.67,1125.72 	"/>
	<path class="st7" d="M1313.94,859.87c14.97,16.02,33.47,88.87,42.01,124.26c52.02,62.7,172.07,197.11,176.28,210.75
		c4.22,13.64-71.58,28.67-104.73,115.68c-26.47,1.15-294.31-159.34-307.94-305.42c-4.87-52.13,15.03-84.9,27.43-124.59
		C1190.47,871.02,1281.73,845.18,1313.94,859.87z"/>
	<path class="st8" d="M1119.55,1005.14c0,0-2.5-71.02,27.43-124.59c43.49-9.53,134.74-35.37,166.96-20.68
		c14.97,16.02,33.47,88.87,42.01,124.26c52.02,62.7,172.07,197.11,176.28,210.75c4.22,13.64-71.58,28.67-104.73,115.68
		c-13.27,0.58-109.69-44.86-198.82-131.5c-16.8-16.33-65.28-60.61-86.83-106.27"/>
	<path class="st5" d="M1132.27,904.6c13.32,36.95,186.68,32.11,200.43-4.39c10.38-27.58,2.45-186.06,2.45-202.34
		c-0.01-72.96-2.99-127.24-23.29-138.48c-20.3-11.24-93.42-13.37-115.27-3.52c-10.1,4.55-42.38,21.22-49.63,29.09
		c-34.46,37.44-12.48,92.23-8.13,150.29C1150.14,886.5,1122.41,877.25,1132.27,904.6z"/>
	<path class="st5" d="M1286.38,531.45l-2.68,12.35l28.16,15.59c0,0-9.33,68.65-45.1,69.59c-35.78,0.94-70.18-73.11-70.18-73.11
		l32.38-18.7l3.26-14.77c0,0-16.08-27.19-21.95-52.83c-6.41-27.84-2.57-35.32,0-66.33c3.17-39.05,50.11-36.71,50.11-36.71
		l46.32,9.91c0,0,15.29,1.79,20.48,13.11c4.41,9.65,5.45,22.01,7.27,37.37c2.83,23.78-3.98,54.24-3.91,72.02
		c0.09,19.84-14.01,29.87-24.1,30.76C1296.36,530.59,1286.38,531.45,1286.38,531.45z"/>
	<path d="M1237.31,352.47c-23.01,6.35-34.78,33.01-39.15,52.2c-17.18,75.36,34.07,117.74,34.07,117.74s-2.19-14.19-4.9-26.52
		c-5.31-24.14,5.11-34.84,5.11-34.84s8.4,20.94,14.69,6.79c1.64-3.68-5.32-13.81,9.19-21.34c-13.1-19.27,16.42-36.9,39.09-35.49
		c16.14,1.01,21.87,14.81,38.8,10.58c18.91-4.73,19.26-40.9-6.35-50.08C1302.24,362.34,1254.07,347.84,1237.31,352.47z"/>
	<path class="st7" d="M1237.22,471.02c-0.66,10.69-6.71,8.3-14.31,7.82c-7.62-0.47-13.25-9.52-12.57-20.2
		c0.66-10.69,9.39-12.76,17-12.3C1234.95,446.8,1237.89,460.35,1237.22,471.02z"/>
	<path d="M1286.38,530.14c-25-2.96-39.71-17.16-39.71-17.16s13.71,19.9,37.03,27.48C1285.47,532.92,1286.38,530.14,1286.38,530.14z"
		/>
	<path class="st9" d="M1355.95,984.13c-23.99-31.05-46.52-44.89-46.52-44.89"/>
	<path class="st5" d="M1203.71,674.12c0,39.01-14.7,65.3-33.86,65.3c-19.16,0-39.73-24.79-45.14-63.42
		c-6.58-47.01,7.52-83.73,28.5-96.75C1169.48,569.14,1203.71,635.11,1203.71,674.12z"/>
	<g>
		<path class="st5" d="M1167.04,718.05C1010.93,739.82,955.09,932.8,955.09,932.8l-19.8-0.95c0,0,11.76-110.53,65.3-196.16
			c50.58-80.88,157.06-147.65,157.06-147.65"/>
		<path class="st6" d="M935.49,930.06c0,0-19.89,42.85-18.17,51.84c1.74,8.99,16.84,17.39,20.31,10.42
			c3.47-6.97,18.53-37.05,19.78-41.45c1.87-6.55-1.68-16.45-0.89-22.66"/>
	</g>
</g>
</svg>
